HIERARCHY
ROOT Hips
{
	OFFSET 0.000000 0.000000 0.000000
	CHANNELS 6 Xposition Yposition Zposition Yrotation Xrotation Zrotation
	JOINT Chest
	{
		OFFSET 0.000000 -0.009281 11.569106
		CHANNELS 3 Yrotation Xrotation Zrotation
		JOINT Chest2
		{
			OFFSET -0.000000 0.016865 9.269641
			CHANNELS 3 Yrotation Xrotation Zrotation
			JOINT Chest3
			{
				OFFSET -0.000000 0.000001 8.374491
				CHANNELS 3 Yrotation Xrotation Zrotation
				JOINT Chest4
				{
					OFFSET -0.000000 0.000001 8.374493
					CHANNELS 3 Yrotation Xrotation Zrotation
					JOINT Neck
					{
						OFFSET -0.000000 0.000002 12.152554
						CHANNELS 3 Yrotation Xrotation Zrotation
						JOINT Head
						{
							OFFSET -0.000000 0.040101 7.802319
							CHANNELS 3 Yrotation Xrotation Zrotation
							End Site
							{
								OFFSET -0.000000 0.020947 14.853096
							}
						}
					}
					JOINT RightCollar
					{
						OFFSET 2.894404 0.000001 6.791374
						CHANNELS 3 Yrotation Xrotation Zrotation
						JOINT RightShoulder
						{
							OFFSET 13.574684 0.000001 0.000000
							CHANNELS 3 Yrotation Xrotation Zrotation
							JOINT RightElbow
							{
								OFFSET 23.923903 0.000002 0.000000
								CHANNELS 3 Yrotation Xrotation Zrotation
								JOINT RightWrist
								{
									OFFSET 19.846718 0.012767 0.000000
									CHANNELS 3 Yrotation Xrotation Zrotation
									End Site
									{
										OFFSET 14.973145 0.000001 0.000000
									}
								}
							}
						}
					}
					JOINT LeftCollar
					{
						OFFSET -2.894404 0.000001 6.791374
						CHANNELS 3 Yrotation Xrotation Zrotation
						JOINT LeftShoulder
						{
							OFFSET -13.574684 -0.000001 0.000000
							CHANNELS 3 Yrotation Xrotation Zrotation
							JOINT LeftElbow
							{
								OFFSET -23.923903 -0.000002 0.000000
								CHANNELS 3 Yrotation Xrotation Zrotation
								JOINT LeftWrist
								{
									OFFSET -19.846718 0.012763 0.000000
									CHANNELS 3 Yrotation Xrotation Zrotation
									End Site
									{
										OFFSET -14.973145 -0.000001 0.000000
									}
								}
							}
						}
					}
				}
			}
		}
	}
	JOINT RightHip
	{
		OFFSET 9.469263 0.004643 0.045487
		CHANNELS 3 Yrotation Xrotation Zrotation
		JOINT RightKnee
		{
			OFFSET 0.000000 0.002661 -40.478676
			CHANNELS 3 Yrotation Xrotation Zrotation
			JOINT RightAnkle
			{
				OFFSET 0.000000 0.049106 -35.224068
				CHANNELS 3 Yrotation Xrotation Zrotation
				JOINT RightToe
				{
					OFFSET -0.000001 12.539529 -6.151390
					CHANNELS 3 Yrotation Xrotation Zrotation
					End Site
					{
						OFFSET -0.000001 5.044994 -1.291870
					}
				}
			}
		}
	}
	JOINT LeftHip
	{
		OFFSET -9.469263 0.004641 0.045487
		CHANNELS 3 Yrotation Xrotation Zrotation
		JOINT LeftKnee
		{
			OFFSET 0.000000 0.002661 -40.478676
			CHANNELS 3 Yrotation Xrotation Zrotation
			JOINT LeftAnkle
			{
				OFFSET 0.000000 0.049106 -35.224068
				CHANNELS 3 Yrotation Xrotation Zrotation
				JOINT LeftToe
				{
					OFFSET -0.000001 12.539529 -6.151390
					CHANNELS 3 Yrotation Xrotation Zrotation
					End Site
					{
						OFFSET -0.000001 5.044994 -1.291870
					}
				}
			}
		}
	}
}
MOTION
Frames: 11
Frame Time: 0.016667
37.316471 -5.914593 84.894753 -2.253425 1.326797 -92.286388 -2.046968 -3.616390 -1.020196 -0.992739 -1.712143 -0.253574 -0.992739 -1.712143 -0.253575 -0.745210 -1.283700 -0.192949 6.581133 -22.950332 -9.407126 9.337638 -6.227298 -15.180145 8.509241 4.768502 -1.716869 46.777285 -18.697960 -10.666986 22.771910 -37.683834 43.811620 -28.090633 39.243699 66.348867 -7.104023 4.588945 -2.859800 -43.192603 -7.350330 11.991662 -43.117512 -55.135558 -18.801568 17.169982 17.944403 -59.437071 0.265932 7.090156 -21.557503 1.059466 -1.081916 -15.527723 0.531831 -5.222284 14.131448 -0.078329 0.450244 -0.166952 -5.704773 -9.894080 -13.132764 0.206071 -15.243683 10.789411 3.227365 -9.427073 1.697600 -2.631336 31.751613 -0.168404 
37.529503 -6.189704 84.922913 -2.122007 1.293696 -92.287672 -1.991751 -3.512473 -1.078540 -0.987748 -1.682180 -0.252598 -0.987748 -1.682181 -0.252598 -0.741454 -1.261232 -0.192155 6.526690 -22.919373 -9.378797 9.244893 -6.173659 -15.143108 8.501162 4.767461 -1.698220 46.796409 -18.690695 -10.709258 22.806376 -37.675282 43.772189 -28.080561 39.271016 66.363163 -7.131965 4.630572 -2.822077 -43.205721 -7.343038 12.028352 -43.056737 -55.146678 -18.809948 17.136972 17.935993 -59.454597 0.384873 7.143668 -21.799076 1.192426 -1.378830 -15.490620 0.494849 -4.803457 14.414692 -0.124283 0.445802 -0.189899 -5.639622 -9.617466 -13.185725 0.254652 -15.709925 10.797458 3.797732 -9.893397 1.723667 -3.495818 32.490073 -0.342472 
37.730244 -6.470261 84.944115 -2.000940 1.242266 -92.280937 -1.934726 -3.412035 -1.145609 -0.983556 -1.659346 -0.246102 -0.983556 -1.659346 -0.246101 -0.738284 -1.244118 -0.187235 6.479776 -22.870858 -9.350477 9.164278 -6.087036 -15.103645 8.514229 4.783175 -1.683504 46.810503 -18.706039 -10.751579 22.854467 -37.669221 43.730928 -28.071176 39.293614 66.375676 -7.127644 4.653769 -2.806275 -43.235630 -7.326414 12.063115 -43.016572 -55.145711 -18.802918 17.101322 17.927592 -59.460068 0.529792 7.200703 -22.000669 1.294771 -1.683379 -15.498439 0.488152 -4.423555 14.637702 -0.179338 0.484528 -0.210421 -5.587722 -9.312095 -13.277021 0.288299 -16.252894 10.896685 4.480843 -10.329090 1.745145 -4.494139 33.224700 -0.549596 
37.917034 -6.745392 84.954788 -1.892728 1.170661 -92.287645 -1.880359 -3.314007 -1.210867 -0.975353 -1.646451 -0.232230 -0.975353 -1.646452 -0.232230 -0.732091 -1.234471 -0.176789 6.437611 -22.804251 -9.321733 9.090889 -5.966618 -15.061762 8.522392 4.776861 -1.684585 46.812542 -18.712538 -10.761714 22.932606 -37.691569 43.691846 -28.070156 39.310754 66.390327 -7.104641 4.668310 -2.793385 -43.264689 -7.311220 12.083022 -42.994856 -55.131999 -18.793742 17.081343 17.894368 -59.426867 0.668238 7.261943 -22.114320 1.432828 -2.025631 -15.634791 0.514706 -3.994971 14.865854 -0.254360 0.493645 -0.232856 -5.542515 -8.988882 -13.447898 0.262700 -16.834323 11.188248 5.318090 -10.751387 1.813979 -5.700130 33.942215 -0.864791 
38.093754 -7.014901 84.952866 -1.812688 1.073595 -92.334199 -1.825096 -3.241449 -1.251640 -0.960666 -1.644527 -0.208293 -0.960666 -1.644526 -0.208293 -0.721011 -1.233071 -0.158795 6.399195 -22.720247 -9.294646 9.022438 -5.813739 -15.021512 8.522411 4.780008 -1.688113 46.791372 -18.718538 -10.754773 23.028055 -37.740562 43.679347 -28.070799 39.337498 66.396890 -7.072762 4.675039 -2.799771 -43.287499 -7.281433 12.081803 -42.956207 -55.107735 -18.811813 17.073166 17.825334 -59.356407 0.795501 7.329198 -22.110793 1.611702 -2.437599 -15.876356 0.572629 -3.553991 15.026537 -0.348039 0.525960 -0.256758 -5.473408 -8.699761 -13.598406 0.165229 -17.394219 11.612486 6.234656 -11.136542 1.878006 -6.988700 34.612400 -1.181612 
38.262451 -7.286329 84.938782 -1.765755 0.938640 -92.440470 -1.744850 -3.197977 -1.244083 -0.940953 -1.646363 -0.181894 -0.940953 -1.646363 -0.181893 -0.706156 -1.234495 -0.138947 6.362323 -22.633229 -9.264461 8.957391 -5.655147 -14.975258 8.522994 4.796423 -1.674304 46.736044 -18.747122 -10.748178 23.133313 -37.790504 43.687075 -28.071726 39.383718 66.400531 -7.047978 4.698792 -2.802648 -43.316933 -7.254174 12.083129 -42.847047 -55.103572 -18.873964 17.057928 17.740221 -59.270292 0.946836 7.387957 -21.935079 1.821398 -2.896896 -16.104338 0.649165 -3.037040 14.886882 -0.429995 0.528258 -0.282497 -5.371860 -8.464878 -13.658007 0.080728 -17.917755 12.091065 7.207765 -11.467497 1.866162 -8.346788 35.213744 -1.523018 
38.424030 -7.564502 84.915482 -1.719310 0.802517 -92.544938 -1.659267 -3.160643 -1.233980 -0.922013 -1.647927 -0.159067 -0.922013 -1.647926 -0.159067 -0.691891 -1.235709 -0.121779 6.332814 -22.548159 -9.234474 8.905729 -5.499647 -14.927469 8.525907 4.808932 -1.676207 46.666403 -18.812291 -10.731107 23.209929 -37.814089 43.725638 -28.082203 39.448857 66.400599 -7.030392 4.733351 -2.804099 -43.355394 -7.223590 12.061555 -42.705853 -55.120149 -18.937902 17.035626 17.650276 -59.192113 1.135313 7.454146 -21.698807 2.003538 -3.315440 -16.256678 0.664397 -2.637219 14.963220 -0.468174 0.601955 -0.302221 -5.266959 -8.240548 -13.744923 0.031376 -18.434185 12.555037 8.111718 -11.744718 1.789888 -9.625956 35.759548 -1.786615 
38.582619 -7.871367 84.885498 -1.686471 0.665827 -92.639611 -1.563980 -3.133137 -1.223019 -0.908026 -1.646588 -0.144404 -0.908026 -1.646588 -0.144405 -0.681362 -1.234731 -0.110744 6.314715 -22.470747 -9.207341 8.874469 -5.357543 -14.881883 8.532313 4.792361 -1.680974 46.612681 -18.864337 -10.720530 23.238494 -37.808317 43.776803 -28.092476 39.509960 66.400852 -7.016557 4.740934 -2.806773 -43.387670 -7.186244 11.993603 -42.611935 -55.143536 -18.953608 17.020686 17.571237 -59.143202 1.351990 7.458715 -21.519740 2.204223 -3.639390 -16.370533 0.558497 -2.248832 14.871419 -0.435052 0.684464 -0.313766 -5.148646 -8.008819 -13.854237 0.006321 -19.007870 12.898600 8.921836 -11.992647 1.796364 -10.870646 36.287904 -2.058739 
38.743752 -8.182960 84.851051 -1.652025 0.553773 -92.685640 -1.486567 -3.095188 -1.250778 -0.897794 -1.643516 -0.138518 -0.897794 -1.643516 -0.138518 -0.673672 -1.232437 -0.106298 6.306375 -22.399933 -9.183310 8.860492 -5.226977 -14.839348 8.529149 4.781974 -1.699969 46.593853 -18.879512 -10.727800 23.234017 -37.809383 43.805077 -28.089262 39.545679 66.409424 -7.011776 4.748892 -2.818884 -43.408403 -7.197250 11.933023 -42.568027 -55.161724 -18.949549 17.015789 17.532518 -59.122930 1.554102 7.457221 -21.483407 2.404217 -3.938242 -16.393180 0.367608 -1.886624 14.880870 -0.363507 0.778087 -0.333079 -5.055170 -7.738749 -14.009754 -0.005195 -19.640390 13.069912 9.715735 -12.319043 1.949326 -12.172833 36.871936 -2.435298 
38.881111 -8.468045 84.813148 -1.561945 0.515262 -92.656468 -1.483576 -2.992624 -1.352399 -0.888025 -1.638855 -0.138821 -0.888025 -1.638855 -0.138819 -0.666346 -1.228942 -0.106489 6.301758 -22.335654 -9.161941 8.853040 -5.108280 -14.800738 8.533912 4.800014 -1.696715 46.596363 -18.839432 -10.778775 23.201900 -37.836523 43.807727 -28.076618 39.565268 66.421226 -7.015238 4.743412 -2.840801 -43.414260 -7.261051 11.897092 -42.550812 -55.151138 -18.961208 17.039818 17.522224 -59.119659 1.648554 7.546480 -21.580372 2.599716 -4.286022 -16.314996 0.161095 -1.530896 14.854162 -0.285141 0.872898 -0.351077 -5.040798 -7.383362 -14.236465 -0.006680 -20.275046 13.098636 10.515065 -12.733257 2.147519 -13.468039 37.488569 -2.845076 
38.990032 -8.736694 84.771202 -1.428682 0.518141 -92.592824 -1.525835 -2.845669 -1.493389 -0.878542 -1.632310 -0.141407 -0.878542 -1.632311 -0.141407 -0.659241 -1.224033 -0.108394 6.292794 -22.277454 -9.144903 8.837078 -5.001125 -14.771293 8.544101 4.804619 -1.691282 46.592016 -18.757001 -10.817771 23.166706 -37.879819 43.801662 -28.064079 39.559493 66.424239 -7.017900 4.718830 -2.859433 -43.411887 -7.338144 11.875290 -42.534081 -55.123161 -18.988749 17.078360 17.516485 -59.121305 1.685434 7.746912 -21.700069 2.774632 -4.723078 -16.214283 -0.046675 -1.159116 14.793116 -0.211924 0.961484 -0.367939 -5.044917 -6.972286 -14.412753 0.024492 -20.892709 13.060564 11.219873 -13.131441 2.204705 -14.597540 38.086480 -3.141362 
